<?xml version="1.0" encoding="utf-8"?>
<svg viewBox="245.939 268.561 531.903 79.466" xmlns="http://www.w3.org/2000/svg">
  <path fill="#fc4949" d="M335.577-50.4h-15.408l14.328 33.696 7.704-17.64zm27.648 0-13.968 32.832L341.697 0h14.04l21.6-50.4zm45.256 0h-14.04L372.193 0h14.544l3.96-9.792 4.176-10.512 6.48-16.128 6.48 16.128 4.176 10.512L415.97 0h14.832zm26.364 0V0h38.304v-11.304H449.1V-50.4Zm54.047 48.024c4.248 2.304 9.072 3.384 14.4 3.384 5.328 0 10.08-1.08 14.328-3.384 4.248-2.232 7.56-5.328 10.008-9.36 2.448-3.96 3.672-8.424 3.672-13.464 0-4.968-1.224-9.432-3.672-13.464-2.448-3.96-5.76-7.056-10.008-9.36-4.248-2.232-9-3.384-14.328-3.384-5.328 0-10.152 1.152-14.4 3.384-4.248 2.304-7.56 5.4-10.008 9.36-2.448 4.032-3.6 8.496-3.6 13.464 0 5.04 1.152 9.504 3.6 13.464 2.448 4.032 5.76 7.128 10.008 9.36zM510.204-12.6c-2.088 1.224-4.392 1.8-6.912 1.8-2.592 0-4.896-.576-6.912-1.8-2.088-1.152-3.744-2.88-4.896-5.04-1.224-2.16-1.8-4.68-1.8-7.56 0-2.808.576-5.328 1.8-7.488a12.868 12.868 0 0 1 4.896-5.112c2.016-1.152 4.32-1.8 6.912-1.8 2.52 0 4.824.648 6.912 1.8 2.016 1.224 3.672 2.952 4.896 5.112 1.152 2.16 1.8 4.68 1.8 7.488 0 2.88-.648 5.4-1.8 7.56-1.224 2.16-2.88 3.888-4.896 5.04zm64.131-3.24c3.096-1.512 5.544-3.6 7.272-6.336 1.728-2.736 2.592-5.904 2.592-9.576 0-3.744-.936-7.056-2.736-9.864-1.872-2.808-4.464-4.968-7.776-6.48-3.384-1.512-7.344-2.304-11.88-2.304h-23.04v11.232h22.176c2.88 0 5.112.648 6.624 1.944 1.44 1.296 2.232 3.168 2.232 5.472 0 2.376-.792 4.176-2.232 5.472-1.512 1.296-3.744 1.872-6.624 1.872h-22.176V0h14.256v-13.392h7.776L569.943 0h15.264zm17.728-34.56V0h14.256v-50.4zM622.364-.504c3.816 1.008 7.776 1.512 11.88 1.512 4.752 0 8.856-.72 12.24-2.16 3.312-1.44 5.832-3.456 7.56-5.904 1.656-2.448 2.52-5.184 2.52-8.208 0-3.456-.936-6.264-2.808-8.28-1.872-2.016-4.032-3.528-6.552-4.464-2.52-.936-5.688-1.8-9.504-2.664-3.456-.72-5.904-1.368-7.416-2.088-1.584-.648-2.304-1.656-2.304-3.024 0-1.296.648-2.376 1.944-3.24 1.296-.864 3.312-1.296 6.192-1.296 4.464 0 9.144 1.296 13.968 3.888l4.392-10.584c-2.448-1.44-5.328-2.52-8.496-3.24-3.24-.72-6.48-1.152-9.792-1.152-4.896 0-9 .72-12.312 2.16-3.312 1.44-5.832 3.456-7.488 5.904-1.728 2.448-2.52 5.256-2.52 8.28 0 3.528.864 6.336 2.736 8.352 1.8 2.088 3.96 3.6 6.552 4.536 2.52.936 5.688 1.8 9.504 2.592 3.456.792 5.904 1.512 7.488 2.232 1.584.72 2.376 1.728 2.376 3.168 0 2.736-2.736 4.104-8.208 4.104-2.88 0-5.832-.432-8.784-1.368-3.024-.864-5.616-2.088-7.848-3.6l-4.68 10.512c2.376 1.728 5.472 3.024 9.36 4.032zm50.74-38.592V0h14.256v-39.096h15.408V-50.4h-45.144v11.304z" font-family="Montserrat ExtraBold Alt1" font-size="72" font-weight="800" style="line-height:1;font-variant-ligatures:none;text-align:center" text-anchor="middle" transform="matrix(1.36, 0, 0, 1.36, -184.28627, 342.276642)"/>
</svg>